<?xml version="1.0" encoding="UTF-8" standalone="no"?>
<svg
   height="16"
   viewBox="0 0 16 16"
   width="16"
   version="1.1"
   id="svg1"
   sodipodi:docname="BlackboardInitializer.svg"
   inkscape:version="1.3.2 (091e20e, 2023-11-25, custom)"
   xml:space="preserve"
   xmlns:inkscape="http://www.inkscape.org/namespaces/inkscape"
   xmlns:sodipodi="http://sodipodi.sourceforge.net/DTD/sodipodi-0.dtd"
   xmlns="http://www.w3.org/2000/svg"
   xmlns:svg="http://www.w3.org/2000/svg"><defs
     id="defs1" /><sodipodi:namedview
     id="namedview1"
     pagecolor="#ffffff"
     bordercolor="#666666"
     borderopacity="1.0"
     inkscape:showpageshadow="2"
     inkscape:pageopacity="0.0"
     inkscape:pagecheckerboard="0"
     inkscape:deskcolor="#d1d1d1"
     inkscape:zoom="32"
     inkscape:cx="10.203125"
     inkscape:cy="10.015625"
     inkscape:window-width="1920"
     inkscape:window-height="1009"
     inkscape:window-x="-8"
     inkscape:window-y="-8"
     inkscape:window-maximized="1"
     inkscape:current-layer="path1" /><circle
     cx="8"
     cy="8"
     r="5"
     fill="none"
     stroke-width="2"
     stroke="#8da5f3"
     id="circle1"
     style="display:none;stroke:#ea9a3b;stroke-opacity:1" /><g
     id="path1"
     transform="matrix(0.8660254,0.5,0.5,-0.8660254,0,0)"><path
       style="color:#000000;fill:#ea9a3b;-inkscape-stroke:none"
       d="M 10.296875,-8.9121094 C 7.968834,-8.9585733 5.8372391,-7.5868995 4.9140625,-5.4492187 3.9908859,-3.311538 4.4539932,-0.81909773 6.0839844,0.84375 c 1.6299911,1.6628477 4.1138546,2.1772116 6.2695316,1.296875 2.155676,-0.8803366 3.570312,-2.98594851 3.570312,-5.3144531 h -2.353515 c 0,1.3794437 -0.830365,2.61519311 -2.107422,3.13671873 C 10.185833,0.48441624 8.7312581,0.18236345 7.765625,-0.80273438 6.7999919,-1.7878322 6.5273141,-3.2492285 7.0742187,-4.515625 7.6211234,-5.7820215 8.870831,-6.5880728 10.25,-6.5605469 l 0.956859,-1.2807258 z"
       id="path6"
       sodipodi:nodetypes="csssccsssccc" /><g
       id="g3"><g
         id="path3"
         transform="rotate(13.7831,15.649582,-2.6527779)"><path
           style="color:#000000;fill:#ea9a3b;fill-rule:evenodd;-inkscape-stroke:none"
           d="m 14.746602,-6.5676102 2.941212,5.0882973 h -5.882425 z"
           id="path4" /><path
           style="color:#000000;fill:#ea9a3b;fill-rule:evenodd;-inkscape-stroke:none"
           d="M 14.746094,-7.3515625 11.125,-1.0878906 h 7.242187 z m 0,1.5683594 2.261718,3.9121094 h -4.523437 z"
           id="path5" /></g></g></g></svg>
